<?xml version="1.0" standalone="no"?>
<!DOCTYPE svg PUBLIC "-//W3C//DTD SVG 1.1//EN" "http://www.w3.org/Graphics/SVG/1.1/DTD/svg11.dtd" >
<svg xmlns="http://www.w3.org/2000/svg">
<metadata></metadata>
<defs>
<font id="omega_ctbold" horiz-adv-x="1146" >
<font-face units-per-em="2048" ascent="1567" descent="-481" />
<missing-glyph horiz-adv-x="512" />
<glyph unicode="&#xfb01;" horiz-adv-x="1200" d="M72 713v209h164v96q0 117 31.5 194.5t86.5 133.5q55 55 129 86.5t158 31.5t157.5 -31.5t129 -87t87.5 -129t32 -157.5h-216q0 41 -15 76.5t-40.5 62.5t-60.5 42t-74 15t-71.5 -14t-59.5 -39q-29 -27 -44 -68.5t-15 -115.5v-96h225v-209h-225v-713h-215v713h-164zM831 0 v922h216v-922h-216z" />
<glyph unicode="&#xfb02;" horiz-adv-x="1200" d="M72 713v209h164v96q0 117 31.5 194.5t86.5 133.5q55 55 129 86.5t158 31.5t157.5 -31.5t129.5 -86.5q55 -55 87 -133t32 -195v-1018h-216v1018q0 74 -15 116t-44 68q-27 25 -59.5 39t-71.5 14t-71.5 -14t-59.5 -39q-29 -27 -44 -68.5t-15 -115.5v-96h225v-209h-225v-713 h-215v713h-164z" />
<glyph horiz-adv-x="2048" />
<glyph horiz-adv-x="2048" />
<glyph unicode="&#xd;" horiz-adv-x="512" />
<glyph unicode=" "  horiz-adv-x="512" />
<glyph unicode="&#x09;" horiz-adv-x="512" />
<glyph unicode="&#xa0;" horiz-adv-x="512" />
<glyph unicode="!" horiz-adv-x="624" d="M154 127q0 66 46 113t111 47q66 0 113 -47t47 -113t-47 -112t-113 -46t-111.5 46t-45.5 112zM205 481v953h215v-953h-215z" />
<glyph unicode="&#x22;" horiz-adv-x="839" d="M102 922v512h215v-512h-215zM522 922v512h215v-512h-215z" />
<glyph unicode="#" horiz-adv-x="1406" d="M51 379l47 209h224l57 258h-223l47 209h223l84 379h221l-84 -379h262l86 379h222l-84 -379h223l-47 -209h-224l-57 -258h223l-47 -209h-223l-84 -379h-221l84 379h-262l-84 -379h-224l84 379h-223zM543 588h264l57 258h-264z" />
<glyph unicode="$" d="M137 287l205 45q18 -66 77.5 -110t131.5 -44q94 0 151.5 62.5t57.5 148.5q0 47 -18.5 87t-45.5 63q-43 39 -97 58t-112.5 39.5t-118 49.5t-112.5 86q-51 53 -82 127t-31 160q0 72 23.5 136.5t66.5 116.5t100.5 88t125.5 52v166h194v-168q106 -29 185.5 -106.5 t107.5 -184.5l-203 -49q-20 63 -72.5 104t-119.5 41q-43 0 -78 -15t-60.5 -42t-40 -61.5t-14.5 -73.5q0 -43 14.5 -78t37.5 -59q41 -47 96 -68.5t115.5 -42t123 -48.5t117.5 -85q47 -47 80 -118.5t33 -170.5q0 -76 -23.5 -143.5t-65.5 -121.5t-101.5 -92t-131.5 -54v-166 h-194v164q-117 27 -205 108.5t-117 198.5z" />
<glyph unicode="%" horiz-adv-x="1921" d="M102 1079q0 80 30 149.5t82 122t122 83t149 30.5q80 0 150 -30.5t122 -83t82.5 -122t30.5 -149.5t-30.5 -149.5t-82.5 -121.5t-122 -82t-150 -30t-149.5 30t-121.5 82t-82 121.5t-30 149.5zM317 1079q0 -72 46.5 -123t121.5 -51q76 0 123 51.5t47 122.5q0 72 -47 124 t-123 52t-122 -52t-46 -124zM379 0l911 1434h252l-911 -1434h-252zM1051 352q0 80 29.5 149.5t81.5 122t122 83t150 30.5t149.5 -30.5t121.5 -83t83 -122t31 -149.5t-31 -149.5t-83 -121.5t-122 -82t-149 -30q-80 0 -150 30t-122 82t-81.5 121.5t-29.5 149.5zM1266 352 q0 -72 46 -123t122 -51t123 51.5t47 122.5q0 72 -47.5 124t-122.5 52q-76 0 -122 -52t-46 -124z" />
<glyph unicode="&#x26;" horiz-adv-x="1372" d="M92 375q0 104 42 183t134 157l121 100l-53 66q-55 68 -81 126t-26 126q0 72 28 132t75 105t109.5 69.5t133.5 24.5q72 0 134.5 -27.5t107.5 -73.5t70.5 -106.5t25.5 -128.5t-29.5 -132t-107.5 -134l-86 -76l248 -299l303 250v-278l-166 -137l266 -322h-278l-154 186 l-131 -108q-59 -47 -121.5 -78t-158.5 -31q-84 0 -158 32t-129 87t-87 129t-32 158zM309 377q0 -41 15.5 -77t41 -62.5t60.5 -43t76 -16.5q47 0 81.5 18.5t71.5 51.5l117 102l-246 299l-118 -98q-47 -41 -73 -81t-26 -93zM444 1133q0 -39 24 -71t52 -69l33 -41l53 43 q53 41 72.5 69t19.5 69q0 53 -38.5 87.5t-88.5 34.5q-49 0 -88 -34.5t-39 -87.5z" />
<glyph unicode="'" horiz-adv-x="419" d="M102 922v512h215v-512h-215z" />
<glyph unicode="(" horiz-adv-x="802" d="M164 475q0 154 34.5 297t98 270t154 238t200.5 197l131 -172q-186 -145 -294.5 -360.5t-108.5 -469.5t108.5 -469t294.5 -360l-131 -172q-111 86 -201 196.5t-153.5 237.5t-98 270t-34.5 297z" />
<glyph unicode=")" horiz-adv-x="802" d="M20 -354q186 145 295 360t109 469t-108.5 469t-295.5 361l132 172q111 -86 200.5 -197t153 -238t98.5 -270t35 -297t-35 -297t-98.5 -270t-153.5 -237.5t-200 -196.5z" />
<glyph unicode="*" horiz-adv-x="1044" d="M61 915v215l281 -4l-143 242l186 107l137 -244l137 244l187 -107l-146 -242l283 4v-215l-281 3l144 -240l-187 -109l-137 246l-137 -246l-186 109l143 242z" />
<glyph unicode="+" d="M154 399v209h313v314h215v-314h311v-209h-311v-311h-215v311h-313z" />
<glyph unicode="," horiz-adv-x="604" d="M-55 -256l239 512h236l-238 -512h-237z" />
<glyph unicode="-" horiz-adv-x="901" d="M113 455v209h675v-209h-675z" />
<glyph unicode="." horiz-adv-x="604" d="M143 127q0 66 46.5 113t111.5 47q66 0 113 -47t47 -113t-47 -112t-113 -46t-112 46t-46 112z" />
<glyph unicode="/" horiz-adv-x="940" d="M0 0l698 1434h242l-700 -1434h-240z" />
<glyph unicode="0" d="M96 618v195q0 39 1 67.5t2 53t3 59.5q6 98 44 183.5t100.5 150t145.5 101t181 36.5t181.5 -36.5t146 -101t100 -149.5t43.5 -184q2 -35 3.5 -59.5t2.5 -53t1 -67.5v-195q0 -37 -1 -65.5t-2 -53t-4 -59.5q-6 -98 -43.5 -183t-100 -149.5t-145.5 -101.5t-182 -37 q-98 0 -181 37t-145.5 101.5t-100 149.5t-44.5 183q-2 35 -3 59.5t-2 53.5t-1 65zM311 717q0 -78 1 -153t5 -130q4 -53 24.5 -99t54.5 -81t79 -55.5t98 -20.5t98.5 20.5t79 55.5t54 81t24.5 99q4 55 5.5 130t1.5 153t-1 152.5t-6 129.5q-4 53 -24.5 99.5t-54 81t-78.5 55 t-99 20.5q-53 0 -98 -20.5t-79 -55t-54 -80.5t-25 -100q-4 -55 -5 -129.5t-1 -152.5z" />
<glyph unicode="1" d="M166 0v209h348v870l-287 -192v252l502 336v-1266h328v-209h-891z" />
<glyph unicode="2" d="M92 0l613 774q59 76 84.5 134.5t25.5 111.5q0 51 -19.5 94t-53 75t-77.5 49t-96 17q-53 0 -98 -20.5t-78 -55t-51 -79.5t-18 -96h-215q0 94 35.5 178t99 147.5t146.5 99t179 35.5t180.5 -33.5t146.5 -94t98 -142.5t36 -180q0 -82 -31.5 -166t-119.5 -197l-349 -442h512 v-209h-950z" />
<glyph unicode="3" d="M109 424h215q0 -51 18 -95t52 -78t78 -53.5t97 -19.5q51 0 95.5 19.5t75 53.5t48 79t17.5 94q0 53 -20.5 101t-57.5 83q-31 29 -72 45.5t-102 16.5h-43v209h39q49 0 81 11t54 32q29 27 46.5 63.5t17.5 79.5q0 39 -13.5 72.5t-38 60.5t-58.5 42t-73 15q-41 0 -74.5 -15 t-58 -42t-39 -60.5t-14.5 -72.5h-215q0 82 31.5 155.5t85 127t126 85t156.5 31.5q82 0 156 -30.5t127 -84t85 -124t32 -152.5q0 -92 -38 -169t-110 -122q84 -49 144.5 -142t60.5 -216q0 -94 -35 -177t-96.5 -144.5t-143 -97.5t-174.5 -36q-96 0 -180 35t-146.5 96.5 t-99 144.5t-36.5 179z" />
<glyph unicode="4" d="M-20 184l940 1291v-1088h204v-203h-204v-184h-215v184h-725zM371 387h334v451z" />
<glyph unicode="5" d="M76 461h215q0 -57 20.5 -108.5t57.5 -90.5t88 -61.5t110 -22.5t110.5 22.5t88.5 61.5t57.5 90t20.5 109q0 55 -20.5 105t-55.5 88t-85 60.5t-108 22.5q-82 0 -138 -30.5t-99 -90.5l-174 123l153 695h615v-209h-440l-72 -320q27 14 76 27.5t98 13.5q102 0 188 -40 t147.5 -107.5t95.5 -156.5t34 -187q0 -102 -39 -190.5t-106.5 -154t-156.5 -103.5t-190 -38q-102 0 -191 39t-155.5 105.5t-105.5 155.5t-39 192z" />
<glyph unicode="6" d="M82 451q0 35 4 68.5t16.5 72.5t35 86t57.5 108l370 648h250l-291 -502q18 4 41 6t45 2q76 0 157 -31.5t146.5 -93t108.5 -151t43 -203.5q0 -102 -39 -191.5t-105.5 -156t-156.5 -105.5t-191 -39q-102 0 -191 38t-155.5 103.5t-105.5 152.5t-39 188zM297 461 q0 -57 20.5 -108.5t57.5 -90.5t88 -61.5t110 -22.5t110.5 22.5t88.5 61.5t57.5 90t20.5 109q0 57 -20.5 108.5t-57.5 90t-88 61t-111 22.5q-59 0 -110 -22.5t-88 -61t-57.5 -90t-20.5 -108.5z" />
<glyph unicode="7" d="M127 1225v209h960l-622 -1434h-236l533 1225h-635z" />
<glyph unicode="8" d="M119 414q0 117 53 213t139 155q-61 51 -99 126t-38 165q0 82 32 152.5t86 124t126.5 84t154.5 30.5t155 -30.5t127 -84t86 -124t32 -152.5q0 -90 -38 -164.5t-99 -126.5q86 -59 139 -155.5t53 -212.5q0 -92 -36 -174t-98.5 -141.5t-145 -94.5t-175.5 -35q-92 0 -175 35 t-145.5 94.5t-98 141.5t-35.5 174zM334 424q0 -49 17.5 -94t50 -79t75.5 -53.5t96 -19.5q51 0 95.5 19.5t77 53.5t50 79t17.5 94t-17.5 94t-50 79t-76.5 53.5t-96 19.5q-53 0 -96 -19.5t-75.5 -53.5t-50 -79t-17.5 -94zM389 1065q0 -78 51.5 -134.5t132.5 -56.5 q82 0 133.5 56.5t51.5 134.5t-51.5 134t-133.5 56t-133 -56t-51 -134z" />
<glyph unicode="9" d="M82 973q0 100 39 190t105.5 156.5t155.5 105.5t191 39q100 0 190.5 -37.5t157 -103.5t105.5 -153t39 -187q0 -35 -4 -68.5t-16.5 -72.5t-35 -86t-57.5 -109l-370 -647h-250l291 502q-18 -4 -41 -6t-45 -2q-76 0 -157 31.5t-146.5 93t-108.5 150.5t-43 204zM297 973 q0 -57 20.5 -108.5t57.5 -90.5t88 -61.5t110 -22.5t110.5 22.5t88.5 61.5t57.5 90t20.5 109q0 57 -20.5 108.5t-57.5 90t-88.5 61t-110.5 22.5t-110 -22.5t-88 -61t-57.5 -90t-20.5 -108.5z" />
<glyph unicode=":" horiz-adv-x="604" d="M143 127q0 66 46.5 113t111.5 47q66 0 113 -47t47 -113t-47 -112t-113 -46t-112 46t-46 112zM143 793q0 66 46.5 112.5t111.5 46.5q66 0 113 -47t47 -112q0 -66 -47 -112t-113 -46t-112 46t-46 112z" />
<glyph unicode=";" horiz-adv-x="604" d="M-55 -256l239 512h236l-238 -512h-237zM143 793q0 66 46.5 112.5t111.5 46.5q66 0 113 -47t47 -112q0 -66 -47 -112t-113 -46t-112 46t-46 112z" />
<glyph unicode="&#x3c;" d="M111 502l835 461v-246l-411 -215l411 -215v-246z" />
<glyph unicode="=" d="M92 190v209h963v-209h-963zM92 608v209h963v-209h-963z" />
<glyph unicode="&#x3e;" d="M201 41v246l411 215l-411 215v246l835 -461z" />
<glyph unicode="?" horiz-adv-x="872" d="M102 1143q0 68 26 126t70 101t103 68.5t127 25.5q66 0 124 -23.5t102 -65.5t70 -98t26 -120q0 -57 -15.5 -100t-38.5 -76q-47 -63 -117.5 -101t-148.5 -77q-66 -31 -65 -84q0 -29 19 -47.5t44 -18.5q31 0 50.5 21.5t19.5 52.5h213q0 -57 -22.5 -107.5t-61.5 -88 t-91.5 -59t-109.5 -21.5q-55 0 -105.5 20.5t-88 56t-59 83.5t-21.5 104q0 51 14 89t37 68q27 37 61.5 64t71.5 48.5t73.5 38.5t67.5 36q59 35 60 94q0 47 -33 78t-76 31q-53 0 -83 -35t-30 -84h-213zM268 127q0 66 46 113t112 47t113 -47t47 -113t-47 -112t-113 -46t-112 46 t-46 112z" />
<glyph unicode="@" horiz-adv-x="2119" d="M164 475q0 186 69.5 349t191.5 285t284.5 192.5t349.5 70.5q186 0 349 -66.5t285 -183t192.5 -274.5t70.5 -338q0 -86 -22.5 -172t-69.5 -153.5t-121 -110.5t-174 -43q-92 0 -156.5 43t-101.5 104q-47 -66 -125 -106.5t-189 -40.5q-84 0 -159.5 34.5t-134 94t-92 140.5 t-33.5 171t33.5 170t92 140.5t134 95t159.5 34.5q150 0 246 -86v56h215v-463q0 -59 11.5 -91t29.5 -51q37 -37 82 -36q76 0 121 68.5t45 205.5q0 135 -55.5 254t-149.5 206t-219 138t-264 51q-143 0 -268 -54t-218.5 -147.5t-146.5 -218.5t-53 -268t53 -268t146.5 -218 t218 -146.5t268.5 -53.5q113 0 213 34t184 93l121 -170q-111 -78 -242 -122t-276 -44q-186 0 -349 69.5t-285 191.5t-191.5 285t-69.5 349zM793 471q0 -98 63.5 -164.5t161.5 -66.5t161.5 66.5t63.5 164.5t-63.5 164.5t-161.5 66.5t-161.5 -66.5t-63.5 -164.5z" />
<glyph unicode="A" horiz-adv-x="1503" d="M0 0l752 1475l751 -1475h-243l-144 281h-731l-141 -281h-244zM489 489h523l-260 523z" />
<glyph unicode="B" horiz-adv-x="1177" d="M154 0v1434h428q117 0 194.5 -32t132.5 -89q53 -53 84 -126t31 -155q0 -98 -36 -163.5t-93 -110.5q82 -43 136 -128t54 -208q0 -88 -32.5 -166t-89.5 -135q-59 -59 -141.5 -90t-200.5 -31h-467zM369 209h252q78 0 122.5 19.5t73.5 52.5q25 29 39 64.5t14 76.5t-14 75.5 t-39 63.5q-29 35 -74 54.5t-122 19.5h-252v-426zM369 844h213q72 0 113.5 17.5t68.5 47.5q45 51 45 123q0 68 -45 123q-27 33 -68 51.5t-114 18.5h-213v-381z" />
<glyph unicode="C" horiz-adv-x="1511" d="M92 717q0 154 59.5 290t161 237.5t237.5 160.5t290 59q190 0 349 -86t261 -231l-172 -123q-72 104 -185.5 167.5t-252.5 63.5q-113 0 -210.5 -42t-169 -114.5t-112.5 -170.5t-41 -211t41 -211t112.5 -171t169 -115t210.5 -42q139 0 252.5 63.5t185.5 168.5l172 -123 q-102 -145 -261 -231.5t-349 -86.5q-154 0 -290 59.5t-237.5 161t-161 237.5t-59.5 290z" />
<glyph unicode="D" horiz-adv-x="1372" d="M154 0v1434h368q190 0 332.5 -61.5t241.5 -172.5q86 -96 135 -220t49 -263t-49 -263t-135 -221q-98 -111 -240.5 -172t-333.5 -61h-368zM369 209h153q141 0 239.5 42t168.5 118q63 70 99 159.5t36 188.5q0 98 -36 188t-99 160q-70 76 -168 118t-240 42h-153v-1016z" />
<glyph unicode="E" d="M154 0v1434h870v-209h-655v-402h635v-209h-635v-405h655v-209h-870z" />
<glyph unicode="F" horiz-adv-x="1085" d="M154 0v1434h870v-209h-655v-402h635v-209h-635v-614h-215z" />
<glyph unicode="G" horiz-adv-x="1669" d="M92 717q0 154 59.5 290t161 237.5t237.5 160.5t290 59q190 0 349 -86t261 -231l-172 -123q-72 104 -185.5 167.5t-252.5 63.5q-113 0 -210.5 -42t-169 -114.5t-112.5 -171t-41 -210.5q0 -113 41 -211t112.5 -171t169 -115t210.5 -42q92 0 175 29t150.5 80t116.5 120.5 t72 153.5h-502v209h733q2 -12 2 -27v-26q0 -154 -59.5 -290t-160.5 -237.5t-237.5 -161t-289.5 -59.5q-154 0 -290 59.5t-237.5 161t-161 237.5t-59.5 290z" />
<glyph unicode="H" horiz-adv-x="1392" d="M154 0v1434h215v-611h655v611h215v-1434h-215v614h-655v-614h-215z" />
<glyph unicode="I" horiz-adv-x="522" d="M154 0v1434h215v-1434h-215z" />
<glyph unicode="J" horiz-adv-x="802" d="M-10 125l172 121q20 -31 55 -49.5t74 -18.5q59 0 102 39q23 23 37 56.5t14 99.5v1061h215v-1055q0 -117 -34.5 -193.5t-94.5 -128.5q-47 -41 -109.5 -64.5t-129.5 -23.5q-92 0 -171 42t-130 114z" />
<glyph unicode="K" horiz-adv-x="1304" d="M154 0v1434h215v-656l579 656h293l-620 -697l673 -737h-297l-628 688v-688h-215z" />
<glyph unicode="L" horiz-adv-x="1054" d="M154 0v1434h215v-1225h655v-209h-870z" />
<glyph unicode="M" horiz-adv-x="1835" d="M31 0l465 1475l422 -983l421 983l465 -1475h-225l-270 868l-391 -909l-392 909l-270 -868h-225z" />
<glyph unicode="N" horiz-adv-x="1392" d="M154 0v1475l870 -961v920h215v-1475l-870 961v-920h-215z" />
<glyph unicode="O" horiz-adv-x="1679" d="M92 717q0 154 59.5 290t161 237.5t237.5 160.5t290 59t290 -59t237 -160.5t160.5 -238t59.5 -289.5q0 -154 -59.5 -290t-160.5 -237.5t-237.5 -161t-289.5 -59.5q-154 0 -290 59.5t-237.5 161t-161 237.5t-59.5 290zM307 717q0 -113 41 -211t112.5 -171t169 -115 t210.5 -42t210 42t168.5 115t112.5 171t41 211t-41 211t-112.5 170.5t-169 114.5t-209.5 42q-113 0 -210.5 -42t-169 -114.5t-112.5 -171t-41 -210.5z" />
<glyph unicode="P" d="M154 0v1434h467q117 0 195.5 -32t135.5 -85q61 -57 97 -135t36 -170t-35.5 -170t-97.5 -135q-57 -53 -136 -85t-195 -32h-252v-590h-215zM369 799h252q78 0 125 21.5t75 56.5q49 59 49 135t-49 135q-29 35 -76 56.5t-124 21.5h-252v-426z" />
<glyph unicode="Q" horiz-adv-x="1679" d="M92 717q0 154 59.5 290t161 237.5t237.5 160.5t290 59t290 -59t237 -160.5t160.5 -238t59.5 -289.5q0 -115 -31.5 -217.5t-91.5 -192.5l123 -84v-264l-266 186q-98 -84 -221 -130t-260 -46q-154 0 -290 59.5t-237.5 161t-161 237.5t-59.5 290zM307 717q0 -113 41 -211 t112.5 -171t169 -115t210.5 -42q170 0 303 92l-160 113v260l307 -215q39 63 60.5 136t21.5 153q0 113 -41 211t-112.5 170.5t-169 114.5t-209.5 42q-113 0 -210.5 -42t-169 -114.5t-112.5 -171t-41 -210.5z" />
<glyph unicode="R" horiz-adv-x="1193" d="M154 0v1434h467q135 0 226 -44t150 -120q41 -53 64.5 -120t23.5 -138q0 -90 -31.5 -164t-88 -128t-132 -86t-161.5 -36l461 -598h-271l-454 590h-39v-590h-215zM369 799h252q78 0 125 21.5t75 56.5q49 59 49 135t-49 135q-29 35 -76 56.5t-124 21.5h-252v-426z" />
<glyph unicode="S" horiz-adv-x="1042" d="M92 287l205 45q18 -66 77.5 -110t131.5 -44q94 0 151.5 62.5t57.5 148.5q0 47 -18.5 87t-45.5 63q-43 39 -97 58t-112.5 39.5t-118 49.5t-112.5 86q-51 53 -82 127t-31 160q0 84 33 157.5t88 129t129 87t158 31.5q70 0 134.5 -23.5t116.5 -64.5t89 -96t55 -121l-203 -49 q-20 63 -72.5 104t-119.5 41q-43 0 -78 -15t-60.5 -42t-40 -61.5t-14.5 -73.5q0 -43 14.5 -78t37.5 -59q41 -47 96 -68.5t115.5 -42t123 -48.5t117.5 -85q47 -47 80 -118.5t33 -170.5q0 -88 -32 -164.5t-88 -134t-134 -91.5t-170 -34q-74 0 -141.5 23.5t-122 66.5t-93 101.5 t-57.5 126.5z" />
<glyph unicode="T" horiz-adv-x="1103" d="M31 1225v209h1042v-209h-414v-1225h-215v1225h-413z" />
<glyph unicode="U" horiz-adv-x="1372" d="M143 553v881h215v-887q0 -96 24 -157.5t64 -106.5q45 -49 106.5 -77t133.5 -28t133.5 27.5t106.5 77.5q41 45 64.5 106.5t23.5 157.5v887h215v-881q0 -131 -34 -226.5t-95 -166.5q-76 -88 -182.5 -139.5t-231.5 -51.5t-231.5 51.5t-182.5 139.5q-61 72 -95 167t-34 226z " />
<glyph unicode="V" horiz-adv-x="1294" d="M-10 1434h235l422 -955l422 955h236l-658 -1475z" />
<glyph unicode="W" horiz-adv-x="1933" d="M-10 1434h233l363 -910l381 951l381 -951l362 910h234l-596 -1475l-381 952l-381 -952z" />
<glyph unicode="X" horiz-adv-x="1208" d="M20 0l457 731l-438 703h254l311 -510l311 510h254l-438 -703l457 -731h-252l-332 539l-332 -539h-252z" />
<glyph unicode="Y" horiz-adv-x="1169" d="M-10 1434h254l340 -557l342 557h254l-488 -781v-653h-215v653z" />
<glyph unicode="Z" horiz-adv-x="1200" d="M41 0l709 1225h-635v209h1003l-708 -1225h718v-209h-1087z" />
<glyph unicode="[" horiz-adv-x="686" d="M205 -481v1915h461v-209h-246v-1497h246v-209h-461z" />
<glyph unicode="\" horiz-adv-x="940" d="M0 1434h242l698 -1434h-240z" />
<glyph unicode="]" horiz-adv-x="686" d="M20 -272h246v1497h-246v209h461v-1915h-461v209z" />
<glyph unicode="^" d="M219 737l354 738l355 -738h-217l-138 283l-137 -283h-217z" />
<glyph unicode="_" horiz-adv-x="1044" d="M41 0h963v-209h-963v209z" />
<glyph unicode="`" horiz-adv-x="569" d="M92 1434h236l149 -318h-237z" />
<glyph unicode="a" horiz-adv-x="1218" d="M82 461q0 100 37 189t101.5 156.5t150.5 106.5t186 39q92 0 166 -29.5t127 -82.5v82h215v-922h-215v82q-53 -53 -127 -83t-166 -30q-100 0 -186 39t-150.5 106.5t-101.5 156.5t-37 190zM297 461q0 -59 21.5 -110.5t58.5 -90.5t87 -60.5t109 -21.5t109.5 21.5t87.5 60.5 t58.5 90.5t21.5 110.5t-21.5 110.5t-58.5 90t-87 60t-110 21.5q-59 0 -109 -21.5t-87 -60t-58.5 -90t-21.5 -110.5z" />
<glyph unicode="b" horiz-adv-x="1218" d="M154 0v1434h215v-594q53 53 125.5 82.5t167.5 29.5q100 0 186 -39t150.5 -106.5t101.5 -156.5t37 -189t-37 -189.5t-101.5 -157t-150.5 -106.5t-186 -39q-94 0 -167 30t-126 83v-82h-215zM369 461q0 -59 21.5 -110.5t58 -90.5t87 -60.5t109.5 -21.5t109.5 21.5t87.5 60.5 t58.5 90t21.5 111q0 59 -21.5 110.5t-58.5 90t-87 60t-110 21.5q-59 0 -109.5 -21.5t-87 -60t-58 -90t-21.5 -110.5z" />
<glyph unicode="c" horiz-adv-x="1038" d="M82 461q0 100 39 190t105.5 156.5t155.5 105.5t191 39q125 0 230.5 -57t173.5 -154l-174 -114q-37 53 -97.5 84.5t-132.5 31.5q-59 0 -109 -21.5t-87 -59t-58.5 -90t-21.5 -111.5t21.5 -111.5t58.5 -90.5t87 -59.5t109 -21.5q72 0 132.5 32t97.5 85l174 -115 q-68 -96 -173.5 -153.5t-230.5 -57.5q-102 0 -191 39t-155.5 105.5t-105.5 155.5t-39 192z" />
<glyph unicode="d" horiz-adv-x="1218" d="M82 461q0 100 37 189t101.5 156.5t150.5 106.5t186 39q92 0 166 -29.5t127 -82.5v594h215v-1434h-215v82q-53 -53 -127 -83t-166 -30q-100 0 -186 39t-150.5 106.5t-101.5 156.5t-37 190zM297 461q0 -59 21.5 -110.5t58.5 -90.5t87 -60.5t109 -21.5t109.5 21.5t87.5 60.5 t58.5 90.5t21.5 110.5t-21.5 110.5t-58.5 90t-87 60t-110 21.5q-59 0 -109 -21.5t-87 -60t-58.5 -90t-21.5 -110.5z" />
<glyph unicode="e" horiz-adv-x="1085" d="M82 461q0 100 34 190t95 156.5t145 105.5t187 39q100 0 185 -39t146.5 -105.5t95.5 -156.5t34 -190q0 -25 -2.5 -49.5t-6.5 -46.5h-684q20 -86 87 -139.5t165 -53.5q80 0 141.5 32t104.5 89l166 -117q-68 -100 -174.5 -153.5t-241.5 -53.5q-104 0 -192 38t-151.5 104.5 t-98.5 155.5t-35 194zM299 541h487q-16 90 -80.5 148.5t-162.5 58.5q-100 0 -164 -58.5t-80 -148.5z" />
<glyph unicode="f" horiz-adv-x="751" d="M72 713v209h164v178q0 104 28.5 172.5t81.5 113.5q41 35 96.5 56.5t114.5 21.5q102 0 184 -57l-123 -172q-29 20 -65 20q-35 0 -66 -26q-16 -16 -26 -42t-10 -81v-184h225v-209h-225v-713h-215v713h-164z" />
<glyph unicode="g" horiz-adv-x="1218" d="M82 461q0 100 37 189t101.5 156.5t150.5 106.5t186 39q92 0 166 -29.5t127 -82.5v82h215v-902q0 -123 -30.5 -211t-88.5 -153q-68 -78 -165 -123t-208 -45q-125 0 -230 57.5t-173 153.5l174 115q37 -53 97.5 -85t131.5 -32q57 0 106.5 20.5t86.5 55.5q41 39 62.5 95 t21.5 146v68q-53 -53 -127 -83t-166 -30q-100 0 -186 39t-150.5 106.5t-101.5 156.5t-37 190zM297 461q0 -59 21.5 -110.5t58.5 -90.5t87 -60.5t109 -21.5t109.5 21.5t87.5 60.5t58.5 90t21.5 111q0 59 -21.5 110.5t-58.5 90t-87 60t-110 21.5q-59 0 -109 -21.5t-87 -60 t-58.5 -90t-21.5 -110.5z" />
<glyph unicode="h" horiz-adv-x="1103" d="M154 0v1434h215v-574q47 43 106.5 67.5t128.5 24.5q88 0 163 -42t122 -109q33 -47 52.5 -107.5t19.5 -167.5v-526h-216v510q0 74 -16 117t-45 69q-51 47 -127 47t-127 -47q-29 -27 -45 -69.5t-16 -116.5v-510h-215z" />
<glyph unicode="i" horiz-adv-x="522" d="M123 1223q0 59 39 99t98 40t99 -40t40 -99t-40 -98.5t-99 -39.5t-98 39.5t-39 98.5zM154 0v922h215v-922h-215z" />
<glyph unicode="j" horiz-adv-x="522" d="M123 1223q0 59 39 99t98 40t99 -40t40 -99t-40 -98.5t-99 -39.5t-98 39.5t-39 98.5zM154 -481v1403h215v-1403h-215z" />
<glyph unicode="k" horiz-adv-x="1056" d="M154 0v1434h215v-897l340 385h290l-397 -435l434 -487h-284l-383 440v-440h-215z" />
<glyph unicode="l" horiz-adv-x="522" d="M154 0v1434h215v-1434h-215z" />
<glyph unicode="m" horiz-adv-x="1622" d="M154 0v922h215v-62q41 47 96 69.5t121 22.5q82 0 145.5 -36.5t97.5 -86.5q51 59 126 91t155 32q84 0 155.5 -33.5t123.5 -91.5q43 -49 66.5 -116.5t23.5 -167.5v-543h-215v532q0 66 -11.5 101t-33.5 57q-49 53 -125 53t-125 -53q-23 -23 -34 -57.5t-11 -100.5v-532h-215 v532q0 66 -11.5 101t-33.5 57q-49 53 -125 53t-125 -53q-23 -23 -34 -57.5t-11 -100.5v-532h-215z" />
<glyph unicode="n" horiz-adv-x="1103" d="M154 0v922h215v-62q47 43 106.5 67.5t128.5 24.5q88 0 163 -42t122 -109q33 -47 52.5 -112.5t19.5 -172.5v-516h-216v510q0 74 -16 117t-45 69q-51 47 -127 47t-127 -47q-29 -27 -45 -69.5t-16 -116.5v-510h-215z" />
<glyph unicode="o" d="M82 461q0 100 39 190t105.5 156.5t155.5 105.5t191 39q100 0 190.5 -39t157 -105.5t105.5 -156.5t39 -190q0 -102 -39 -191.5t-105.5 -156t-156.5 -105.5t-191 -39q-102 0 -191 39t-155.5 105.5t-105.5 156t-39 191.5zM297 461q0 -59 21.5 -110.5t58.5 -90.5t87 -60.5 t109 -21.5t109.5 21.5t87.5 60.5t58.5 90t21.5 111q0 59 -21.5 110.5t-58.5 90t-87 60t-110 21.5q-59 0 -109 -21.5t-87 -60t-58.5 -90t-21.5 -110.5z" />
<glyph unicode="p" horiz-adv-x="1218" d="M154 -481v1403h215v-84q53 53 125.5 83.5t167.5 30.5q100 0 186 -39t150.5 -106.5t101.5 -156.5t37 -189t-37 -189.5t-101.5 -157t-150.5 -106.5t-186 -39q-94 0 -167 31t-126 84v-565h-215zM369 461q0 -59 21.5 -110.5t58 -90.5t87 -60.5t109.5 -21.5t109.5 21.5 t87.5 60.5t58.5 90t21.5 111q0 59 -21.5 110.5t-58.5 90t-87 60t-110 21.5q-59 0 -109.5 -21.5t-87 -60t-58 -90t-21.5 -110.5z" />
<glyph unicode="q" horiz-adv-x="1218" d="M82 461q0 100 37 189t101.5 156.5t150.5 106.5t186 39q92 0 166 -30.5t127 -83.5v84h215v-1403h-215v565q-53 -53 -127 -84t-166 -31q-100 0 -186 39t-150.5 106.5t-101.5 156.5t-37 190zM297 461q0 -59 21.5 -110.5t58.5 -90.5t87 -60.5t109 -21.5t109.5 21.5t87.5 60.5 t58.5 90t21.5 111q0 59 -21.5 110.5t-58.5 90t-87 60t-110 21.5q-59 0 -109 -21.5t-87 -60t-58.5 -90t-21.5 -110.5z" />
<glyph unicode="r" horiz-adv-x="755" d="M154 0v922h215v-62q41 47 92 69.5t104 22.5q59 0 102.5 -20.5t77.5 -48.5l-112 -172q-44 32 -103 32h-4q-27 0 -50 -8t-44 -22q-29 -23 -46 -61t-17 -107v-545h-215z" />
<glyph unicode="s" horiz-adv-x="804" d="M102 195l199 47q8 -31 32.5 -50.5t57.5 -19.5q39 0 65.5 26.5t26.5 65.5q0 23 -11 43.5t-28 32.5q-23 16 -53.5 26.5t-66 23.5t-73.5 34.5t-73 60.5q-33 37 -50 86.5t-17 100.5q0 57 22.5 108t60 90t89 60.5t110.5 21.5q100 0 175 -59t100 -152l-197 -49 q-6 25 -27.5 41.5t-48.5 16.5q-33 0 -54.5 -22.5t-21.5 -55.5q1 -27 17 -47q18 -25 53 -40.5t76 -31.5t83 -37.5t73 -54.5q35 -37 53 -84t18 -113q0 -61 -22.5 -115.5t-62.5 -94.5t-95 -62.5t-119 -22.5q-106 0 -186 63.5t-105 162.5z" />
<glyph unicode="t" horiz-adv-x="737" d="M72 713v209h164v303h215v-303h225v-209h-225v-713h-215v713h-164z" />
<glyph unicode="u" horiz-adv-x="1085" d="M143 410v512h215v-519q0 -74 18.5 -116.5t49.5 -67.5q47 -41 117 -41t116 41q31 25 49.5 68t18.5 116v519h215v-512q0 -123 -38 -206t-101 -138q-53 -45 -118.5 -71t-141.5 -26t-141.5 25.5t-118.5 71.5q-63 55 -101.5 138t-38.5 206z" />
<glyph unicode="v" horiz-adv-x="1003" d="M31 922h239l232 -486l231 486h240l-471 -963z" />
<glyph unicode="w" horiz-adv-x="1466" d="M31 922h239l205 -473l258 514l258 -514l205 473h240l-432 -963l-271 547l-270 -547z" />
<glyph unicode="x" horiz-adv-x="1081" d="M72 0l336 481l-308 441h265l176 -263l176 263h264l-309 -441l338 -481h-265l-204 303l-205 -303h-264z" />
<glyph unicode="y" horiz-adv-x="1056" d="M61 922h234l246 -643l233 643h232l-514 -1373h-230l168 451z" />
<glyph unicode="z" horiz-adv-x="999" d="M82 0l434 713h-371v209h752l-436 -713h422v-209h-801z" />
<glyph unicode="{" horiz-adv-x="686" d="M61 395v162q53 0 76 8t37 23q14 14 22.5 37.5t8.5 74.5v375q0 96 23.5 156.5t64.5 103.5q43 45 107.5 72t162.5 27h103v-209h-103q-53 0 -75.5 -8.5t-36.5 -22.5t-22.5 -37.5t-8.5 -75.5v-381q0 -82 -21.5 -136t-60.5 -89q39 -35 60.5 -89t21.5 -134v-381q0 -51 8 -74.5 t23 -38.5q14 -14 36.5 -22t75.5 -8h103v-209h-103q-98 0 -162.5 26.5t-107.5 71.5q-41 43 -64.5 103.5t-23.5 156.5v375q0 51 -8.5 74.5t-22.5 38.5q-14 14 -36.5 22t-76.5 8z" />
<glyph unicode="|" horiz-adv-x="460" d="M123 -481v1915h215v-1915h-215z" />
<glyph unicode="}" horiz-adv-x="686" d="M20 -272h103q53 0 75.5 8t37.5 22q14 14 22 38t8 75v381q0 80 21.5 134t60.5 89q-39 35 -60.5 89t-21.5 136v381q0 51 -8 75t-22 38t-37 22.5t-76 8.5h-103v209h103q98 0 162.5 -27t107.5 -72q41 -43 64.5 -103.5t23.5 -156.5v-375q0 -51 8.5 -74.5t22.5 -37.5 t36.5 -22.5t76.5 -8.5v-162q-53 0 -76 -8t-37 -22t-22.5 -38t-8.5 -75v-375q0 -96 -23.5 -156.5t-64.5 -103.5q-43 -45 -107.5 -71.5t-162.5 -26.5h-103v209z" />
<glyph unicode="~" d="M70 319q6 61 31.5 114.5t66.5 93.5t94 63.5t115 23.5q80 0 132 -24.5t94 -55t78 -55t81 -24.5q63 0 89 38.5t34 88.5l192 -41q-6 -61 -31.5 -115.5t-66.5 -94.5t-94.5 -62.5t-114.5 -22.5q-80 0 -132 24.5t-94 55t-78 55.5t-81 25q-63 0 -89 -39t-34 -88z" />
<glyph unicode="&#xa1;" horiz-adv-x="624" d="M154 795q0 66 46 111.5t111 45.5q66 0 113 -46t47 -111q0 -66 -47 -113t-113 -47t-111.5 47t-45.5 113zM205 471h215v-952h-215v952z" />
<glyph unicode="&#xa2;" d="M147 461q0 88 30 168t83 143.5t125 107.5t156 62v164h194v-164q94 -18 173 -71.5t134 -129.5l-174 -114q-37 53 -97 84.5t-132 31.5q-59 0 -109.5 -21.5t-87 -59t-58.5 -90t-22 -111.5t22 -111.5t58.5 -90.5t87 -59.5t109.5 -21.5q72 0 132 32t97 85l174 -115 q-55 -78 -134 -130t-173 -70v-164h-194v164q-84 16 -156 60t-125 107.5t-83 143.5t-30 170z" />
<glyph unicode="&#xa3;" d="M106 0v209h203q25 29 41.5 68.5t16.5 89.5q0 31 -8.5 58.5t-22.5 55.5h-230v174h109q-43 61 -76 139t-33 189q0 100 39 187t106.5 153t157 103.5t189.5 37.5q84 0 161 -27.5t139.5 -75.5t106.5 -114.5t66 -144.5l-205 -62q-23 94 -94.5 154.5t-173.5 60.5 q-59 0 -109.5 -21.5t-87 -60t-58 -90t-21.5 -110.5q0 -47 14 -88t35.5 -79t49.5 -75t56 -76h369v-174h-279q6 -25 10.5 -50t4.5 -54q0 -53 -13.5 -96t-29.5 -72h264q41 0 59.5 7t32.5 20q20 16 31.5 41.5t21.5 48.5l189 -93q-20 -72 -68.5 -130t-122.5 -85 q-25 -10 -54.5 -14t-76.5 -4h-709z" />
<glyph unicode="&#xa4;" horiz-adv-x="1372" d="M102 1149l152 151l168 -170q57 37 124.5 57.5t139.5 20.5t138.5 -20.5t123.5 -57.5l170 170l152 -151l-170 -170q37 -57 57.5 -124t20.5 -138q0 -72 -20.5 -139.5t-57.5 -124.5l168 -166l-152 -152l-168 166q-57 -35 -123.5 -55.5t-138.5 -20.5t-139.5 20.5t-124.5 55.5 l-166 -166l-152 152l166 166q-75 117 -75 264q0 145 75 262zM410 717q0 -59 21.5 -110.5t58 -90.5t87 -60.5t109.5 -21.5t109.5 21.5t87.5 60.5t58.5 90t21.5 111q0 59 -21.5 110.5t-58.5 90t-87.5 60t-109.5 21.5t-109.5 -21.5t-87 -60t-58 -90t-21.5 -110.5z" />
<glyph unicode="&#xa5;" d="M-20 1434h253l340 -557l342 557h254l-424 -678h265v-174h-328v-123h328v-174h-328v-285h-215v285h-328v174h328v123h-328v174h264z" />
<glyph unicode="&#xa6;" horiz-adv-x="501" d="M143 297h215v-778h-215v778zM143 655v779h215v-779h-215z" />
<glyph unicode="&#xa7;" horiz-adv-x="1099" d="M102 508q0 51 12.5 99t32 89t43 74t46.5 53q-33 41 -55.5 104.5t-22.5 135.5q0 86 32.5 159.5t88 127t129 84t157.5 30.5q70 0 133.5 -23.5t115.5 -64.5t90 -96t57 -121l-203 -49q-20 63 -72.5 104t-120.5 41q-41 0 -75.5 -15t-61.5 -39.5t-41 -58.5t-14 -71 q0 -59 25.5 -98t68.5 -65.5t97 -45t111.5 -39t113 -46t98.5 -66.5q47 -43 78.5 -112t31.5 -155q0 -51 -12 -99t-32.5 -89t-44 -75t-44.5 -54q31 -41 54.5 -103.5t23.5 -134.5q0 -86 -32.5 -159.5t-88 -127t-130.5 -84t-156 -30.5q-70 0 -134.5 23.5t-117 64.5t-89 96.5 t-55.5 120.5l203 49q20 -63 72.5 -104t120.5 -41q41 0 75.5 15.5t61 40t41 58t14.5 70.5q0 59 -25.5 98t-68.5 66t-97.5 45.5t-111.5 39t-112.5 46t-98.5 66.5q-47 43 -79 111.5t-32 154.5zM317 532q0 -147 160 -202q51 -18 108.5 -36t114.5 -44q29 23 55.5 63.5t26.5 106.5 q1 148 -159 203q-51 16 -109.5 34.5t-114.5 44.5q-29 -25 -55.5 -65.5t-26.5 -104.5z" />
<glyph unicode="&#xa8;" horiz-adv-x="892" d="M92 1223q0 59 39 99t98 40t99.5 -40t40.5 -99t-40 -98.5t-100 -39.5q-59 0 -98 39.5t-39 98.5zM524 1223q0 59 39 99t99 40q59 0 99 -40t40 -99t-40 -98.5t-99 -39.5t-98.5 39.5t-39.5 98.5z" />
<glyph unicode="&#xa9;" horiz-adv-x="1617" d="M61 717q0 154 59.5 290t161 237.5t237.5 160.5t290 59t290 -59t237.5 -160.5t160.5 -238t59 -289.5q0 -154 -59 -290t-160.5 -237.5t-237.5 -161t-290 -59.5t-290 59.5t-237.5 161t-161 237.5t-59.5 290zM215 717q0 -123 46 -232.5t126 -191.5t188.5 -129t233.5 -47 t233.5 47t188.5 129t126 191.5t46 232.5t-46 232.5t-126 191.5t-188.5 129t-233.5 47t-233.5 -47t-188.5 -129t-126 -191.5t-46 -232.5zM354 717q0 96 36 181t99.5 147.5t148.5 99.5t181 37q121 0 220.5 -54.5t162.5 -146.5l-125 -86q-41 63 -108.5 100t-149.5 37 q-66 0 -123 -24.5t-99 -67.5t-65.5 -100.5t-23.5 -122.5q0 -66 23.5 -123t65.5 -100t99.5 -68t122.5 -25q82 0 149.5 37t108.5 101l125 -86q-63 -92 -162.5 -146.5t-220.5 -54.5q-96 0 -181 36t-148.5 99.5t-99.5 148.5t-36 181z" />
<glyph unicode="&#xaa;" horiz-adv-x="856" d="M102 1139q0 68 25 126t68 103t100 70.5t123 25.5q59 0 108 -19.5t84 -53.5v53h144v-610h-144v55q-35 -35 -84 -55.5t-108 -20.5q-66 0 -123 25.5t-100 70.5t-68 103.5t-25 126.5zM287 1139q0 -61 41 -103.5t100 -42.5t100 42t41 104q0 61 -41 103t-100 42t-100 -42 t-41 -103z" />
<glyph unicode="&#xab;" horiz-adv-x="1169" d="M123 461l237 307h277l-250 -307l250 -307h-277zM604 461l238 307h276l-250 -307l250 -307h-276z" />
<glyph unicode="&#xac;" d="M92 608v209h963v-520h-215v311h-748z" />
<glyph unicode="&#xad;" horiz-adv-x="901" d="M113 455v209h675v-209h-675z" />
<glyph unicode="&#xae;" horiz-adv-x="1617" d="M61 717q0 154 59.5 290t161 237.5t237.5 160.5t290 59t290 -59t237.5 -160.5t160.5 -238t59 -289.5q0 -154 -59 -290t-160.5 -237.5t-237.5 -161t-290 -59.5t-290 59.5t-237.5 161t-161 237.5t-59.5 290zM215 717q0 -123 46 -232.5t126 -191.5t188.5 -129t233.5 -47 t233.5 47t188.5 129t126 191.5t46 232.5t-46 232.5t-126 191.5t-188.5 129t-233.5 47t-233.5 -47t-188.5 -129t-126 -191.5t-46 -232.5zM518 274v889h295q90 0 145.5 -23.5t92.5 -64.5q31 -35 48 -80t17 -94t-17.5 -94t-47.5 -80q-31 -35 -72 -55.5t-102 -28.5l276 -369 h-195l-274 365h-12v-365h-154zM672 788h137q55 0 82 10.5t43 26.5q29 33 29 76t-29 76q-16 16 -43 26.5t-82 10.5h-137v-226z" />
<glyph unicode="&#xaf;" horiz-adv-x="1024" d="M92 1116v195h840v-195h-840z" />
<glyph unicode="&#xb0;" horiz-adv-x="890" d="M82 1100q0 76 28.5 142.5t78 115.5t116 77.5t141.5 28.5q74 0 140.5 -28.5t116 -77.5t78 -115.5t28.5 -142.5q0 -74 -28.5 -140.5t-78 -115.5t-116 -78t-140.5 -29q-76 0 -142 29t-115.5 78t-78 115.5t-28.5 140.5zM299 1100q0 -61 43 -104.5t104 -43.5t105.5 43 t44.5 105q0 61 -44 105t-106 44q-61 0 -104 -44t-43 -105z" />
<glyph unicode="&#xb1;" d="M154 23v208h839v-208h-839zM154 575v209h313v232h215v-232h311v-209h-311v-231h-215v231h-313z" />
<glyph unicode="&#xb2;" horiz-adv-x="745" d="M123 709l256 417q27 41 37 61.5t10 41.5q0 18 -11.5 30.5t-29.5 12.5q-20 0 -30.5 -15.5t-10.5 -35.5h-194q0 49 18 91t50 74.5t75 51t92 18.5q59 0 112.5 -25.5t86.5 -72.5q16 -23 25 -52.5t9 -62.5q0 -51 -20 -95t-49 -93l-98 -162h172v-184h-500z" />
<glyph unicode="&#xb3;" horiz-adv-x="739" d="M123 934h182q0 -27 17.5 -44.5t44.5 -17.5t45 17.5t18 44.5q0 35 -23.5 49t-60.5 14h-18v187h18q23 0 33 3t16 7q16 12 17 33q0 45 -45 45q-18 0 -31.5 -14.5t-13.5 -32.5h-183q0 49 18.5 91t50.5 72.5t74 49t89 18.5q45 0 87 -16.5t72.5 -45t49 -68.5t18.5 -85 t-19.5 -85.5t-54.5 -63.5q39 -25 65.5 -71t26.5 -101q0 -49 -19 -91.5t-52 -74t-77 -49t-93 -17.5q-51 0 -97.5 18.5t-80 52.5t-54 78t-20.5 97z" />
<glyph unicode="&#xb4;" horiz-adv-x="569" d="M92 1116l150 318h235l-147 -318h-238z" />
<glyph unicode="&#xb5;" horiz-adv-x="1103" d="M154 -481v1403h215v-504q0 -74 16 -117t45 -70q51 -47 127 -47t127 47q29 27 45 70t16 117v504h216v-516q0 -106 -19.5 -172t-52.5 -113q-47 -68 -122 -110t-163 -42q-70 0 -129 24.5t-106 67.5v-542h-215z" />
<glyph unicode="&#xb6;" horiz-adv-x="1218" d="M20 1022q0 92 37 171t103 136q53 47 126.5 76t184.5 29h778v-209h-184v-1708h-215v1708h-205v-1708h-215v1095q-84 0 -158.5 32t-130 87t-88.5 130t-33 161z" />
<glyph unicode="&#xb7;" horiz-adv-x="604" d="M143 815q0 66 46.5 113t111.5 47q66 0 113 -47t47 -113t-47 -112t-113 -46t-112 46t-46 112z" />
<glyph unicode="&#xb8;" horiz-adv-x="598" d="M92 -369l182 277h232l-180 -277h-234z" />
<glyph unicode="&#xb9;" horiz-adv-x="589" d="M123 1008v235l344 232v-758h-195v393z" />
<glyph unicode="&#xba;" horiz-adv-x="856" d="M102 1139q0 68 26 126t71 103t103 70.5t126 25.5t126 -25.5t103 -70.5t71 -103.5t26 -125.5q0 -68 -26 -126.5t-71 -103.5t-103 -70.5t-126 -25.5t-126 25.5t-103 70.5t-71 103.5t-26 126.5zM287 1139q0 -61 41 -103.5t100 -42.5t100 42t41 104q0 61 -41 103t-100 42 t-100 -42t-41 -103z" />
<glyph unicode="&#xbb;" horiz-adv-x="1169" d="M51 154l250 307l-250 307h277l237 -307l-237 -307h-277zM532 154l250 307l-250 307h277l238 -307l-238 -307h-277z" />
<glyph unicode="&#xbc;" horiz-adv-x="1587" d="M147 1008v235l345 232v-758h-195v393zM238 0l911 1434h252l-912 -1434h-251zM831 96l539 662v-494h94v-168h-94v-96h-178v96h-361zM1141 264h51v64z" />
<glyph unicode="&#xbd;" horiz-adv-x="1622" d="M147 1008v235l345 232v-758h-195v393zM238 0l911 1434h252l-912 -1434h-251zM1020 0l256 418q27 41 37 61.5t10 40.5q0 18 -11.5 30.5t-29.5 12.5q-20 0 -30.5 -15.5t-10.5 -35.5h-194q0 49 18 91t50 75t75 51.5t92 18.5q59 0 112.5 -26t86.5 -73q16 -23 25.5 -52.5 t9.5 -61.5q0 -51 -20.5 -95.5t-49.5 -93.5l-98 -162h172v-184h-500z" />
<glyph unicode="&#xbe;" horiz-adv-x="1671" d="M123 934h182q0 -27 17.5 -44.5t44.5 -17.5t45 17.5t18 44.5q0 35 -23.5 49t-60.5 14h-18v187h18q23 0 33 3t16 7q16 12 17 33q0 45 -45 45q-18 0 -31.5 -14.5t-13.5 -32.5h-183q0 49 18.5 91t50.5 72.5t74 49t89 18.5q45 0 87 -16.5t72.5 -45t49 -68.5t18.5 -85 t-19.5 -85.5t-54.5 -63.5q39 -25 65.5 -71t26.5 -101q0 -49 -19 -91.5t-52 -74t-77 -49t-93 -17.5q-51 0 -97.5 18.5t-80 52.5t-54 78t-20.5 97zM322 0l911 1434h252l-912 -1434h-251zM915 96l539 662v-494h94v-168h-94v-96h-178v96h-361zM1225 264h51v64z" />
<glyph unicode="&#xbf;" horiz-adv-x="872" d="M123 -205q0 57 15.5 100.5t37.5 75.5q47 63 118 101.5t148 77.5q66 31 66 83q0 29 -19.5 47.5t-44.5 18.5q-31 0 -50 -21.5t-19 -52.5h-213q0 57 22.5 107.5t61.5 88.5t90 59.5t110 21.5q55 0 105.5 -20.5t88.5 -56.5t59.5 -84t21.5 -103q0 -51 -14.5 -89t-36.5 -69 q-27 -37 -62 -63.5t-71.5 -48t-73.5 -39t-68 -35.5q-59 -35 -59 -95q0 -47 32.5 -77.5t75.5 -30.5q53 0 83 34.5t30 84.5h213q0 -68 -25.5 -126.5t-69.5 -101.5t-103.5 -68.5t-127.5 -25.5q-66 0 -124 23.5t-102 65.5t-69.5 97.5t-25.5 120.5zM287 795q0 66 47 111.5 t112 45.5q66 0 112 -45.5t46 -111.5t-46 -113t-112 -47t-112.5 47t-46.5 113z" />
<glyph unicode="&#xc0;" horiz-adv-x="1503" d="M0 0l752 1475l751 -1475h-243l-144 281h-731l-141 -281h-244zM487 1946h236l149 -318h-237zM489 489h523l-260 523z" />
<glyph unicode="&#xc1;" horiz-adv-x="1503" d="M0 0l752 1475l751 -1475h-243l-144 281h-731l-141 -281h-244zM489 489h523l-260 523zM631 1628l149 318h236l-148 -318h-237z" />
<glyph unicode="&#xc2;" horiz-adv-x="1503" d="M0 0l752 1475l751 -1475h-243l-144 281h-731l-141 -281h-244zM449 1628l151 318h305l152 -318h-221l-84 174l-82 -174h-221zM489 489h523l-260 523z" />
<glyph unicode="&#xc3;" horiz-adv-x="1503" d="M0 0l752 1475l751 -1475h-243l-144 281h-731l-141 -281h-244zM389 1628q0 51 19.5 97.5t52.5 80t77 54t95 20.5q49 0 82 -14.5t58.5 -31.5t47 -31.5t45.5 -14.5q25 0 41.5 18.5t16.5 42.5h188q0 -51 -19.5 -97t-52 -80t-76.5 -54.5t-96 -20.5q-49 0 -81.5 14.5t-58.5 32 t-47.5 32t-45.5 14.5q-25 0 -41 -18.5t-16 -43.5h-189zM489 489h523l-260 523z" />
<glyph unicode="&#xc4;" horiz-adv-x="1503" d="M0 0l752 1475l751 -1475h-243l-144 281h-731l-141 -281h-244zM397 1735q0 59 39 99t99 40q59 0 99 -40t40 -99t-40 -98.5t-99 -39.5t-98.5 39.5t-39.5 98.5zM489 489h523l-260 523zM829 1735q0 59 39 99t99 40q59 0 99 -40t40 -99t-40 -98.5t-99 -39.5t-98.5 39.5 t-39.5 98.5z" />
<glyph unicode="&#xc5;" horiz-adv-x="1503" d="M0 0l752 1475l751 -1475h-243l-144 281h-731l-141 -281h-244zM489 489h523l-260 523zM506 1782q0 51 19.5 95t53 78t77.5 53.5t96 19.5q51 0 95 -19.5t77.5 -53.5t53 -78t19.5 -95t-19.5 -95.5t-53 -78t-77.5 -53t-95 -19.5t-95.5 19.5t-78 53t-53 78t-19.5 95.5z M637 1782q0 -49 32.5 -82t82.5 -33q47 0 80.5 33t33.5 82q0 47 -33.5 80.5t-80.5 33.5q-49 0 -82 -33.5t-33 -80.5z" />
<glyph unicode="&#xc6;" horiz-adv-x="2041" d="M-10 0l1089 1434h871v-209h-656v-402h635v-209h-635v-405h656v-209h-871v281h-604l-213 -281h-272zM633 489h446v590z" />
<glyph unicode="&#xc7;" horiz-adv-x="1511" d="M92 717q0 154 59.5 290t161 237.5t237.5 160.5t290 59q190 0 349 -86t261 -231l-172 -123q-72 104 -185.5 167.5t-252.5 63.5q-113 0 -210.5 -42t-169 -114.5t-112.5 -170.5t-41 -211t41 -211t112.5 -171t169 -115t210.5 -42q139 0 252.5 63.5t185.5 168.5l172 -123 q-102 -145 -261 -231.5t-349 -86.5q-154 0 -290 59.5t-237.5 161t-161 237.5t-59.5 290zM573 -410l150 318h235l-147 -318h-238z" />
<glyph unicode="&#xc8;" d="M154 0v1434h870v-209h-655v-402h635v-209h-635v-405h655v-209h-870zM322 1946h235l150 -318h-238z" />
<glyph unicode="&#xc9;" d="M154 0v1434h870v-209h-655v-402h635v-209h-635v-405h655v-209h-870zM469 1628l149 318h236l-147 -318h-238z" />
<glyph unicode="&#xca;" d="M154 0v1434h870v-209h-655v-402h635v-209h-635v-405h655v-209h-870zM285 1628l151 318h305l152 -318h-221l-84 174l-82 -174h-221z" />
<glyph unicode="&#xcb;" d="M154 0v1434h870v-209h-655v-402h635v-209h-635v-405h655v-209h-870zM236 1735q0 59 38.5 99t98.5 40q59 0 99 -40t40 -99t-40 -98.5t-99 -39.5t-98 39.5t-39 98.5zM668 1735q0 59 38.5 99t98.5 40q59 0 99 -40t40 -99t-40 -98.5t-99 -39.5t-98 39.5t-39 98.5z" />
<glyph unicode="&#xcc;" horiz-adv-x="522" d="M6 1946h236l149 -318h-237zM154 0v1434h215v-1434h-215z" />
<glyph unicode="&#xcd;" horiz-adv-x="522" d="M129 1628l150 318h235l-147 -318h-238zM154 0v1434h215v-1434h-215z" />
<glyph unicode="&#xce;" horiz-adv-x="522" d="M-41 1628l152 318h305l151 -318h-221l-84 174l-82 -174h-221zM154 0v1434h215v-1434h-215z" />
<glyph unicode="&#xcf;" horiz-adv-x="522" d="M-92 1735q0 59 39 99t98 40t99 -40t40 -99t-40 -98.5t-99 -39.5t-98 39.5t-39 98.5zM154 0v1434h215v-1434h-215zM340 1735q0 59 39 99t98 40t99 -40t40 -99t-39.5 -98.5t-99.5 -39.5q-59 0 -98 39.5t-39 98.5z" />
<glyph unicode="&#xd0;" horiz-adv-x="1372" d="M-51 631v174h205v629h368q190 0 332.5 -61.5t241.5 -172.5q86 -96 135 -220t49 -263t-49 -263t-135 -221q-98 -111 -240.5 -172t-333.5 -61h-368v631h-205zM369 209h153q141 0 239.5 42t168.5 118q63 70 99 159.5t36 188.5q0 98 -36 188t-99 160q-70 76 -168 118t-240 42 h-153v-420h409v-174h-409v-422z" />
<glyph unicode="&#xd1;" horiz-adv-x="1392" d="M154 0v1475l870 -961v920h215v-1475l-870 961v-920h-215zM338 1628q0 51 19.5 97.5t52 80t76.5 54t96 20.5q49 0 81.5 -14.5t58.5 -31.5t47.5 -31.5t45.5 -14.5q25 0 41 18.5t16 42.5h189q0 -51 -19.5 -97t-52.5 -80t-77 -54.5t-95 -20.5q-49 0 -82 14.5t-58.5 32t-47 32 t-45.5 14.5q-25 0 -41.5 -18.5t-16.5 -43.5h-188z" />
<glyph unicode="&#xd2;" horiz-adv-x="1679" d="M92 717q0 154 59.5 290t161 237.5t237.5 160.5t290 59t290 -59t237 -160.5t160.5 -238t59.5 -289.5q0 -154 -59.5 -290t-160.5 -237.5t-237.5 -161t-289.5 -59.5q-154 0 -290 59.5t-237.5 161t-161 237.5t-59.5 290zM307 717q0 -113 41 -211t112.5 -171t169 -115 t210.5 -42t210 42t168.5 115t112.5 171t41 211t-41 211t-112.5 170.5t-169 114.5t-209.5 42q-113 0 -210.5 -42t-169 -114.5t-112.5 -171t-41 -210.5zM571 1946h236l149 -318h-237z" />
<glyph unicode="&#xd3;" horiz-adv-x="1679" d="M92 717q0 154 59.5 290t161 237.5t237.5 160.5t290 59t290 -59t237 -160.5t160.5 -238t59.5 -289.5q0 -154 -59.5 -290t-160.5 -237.5t-237.5 -161t-289.5 -59.5q-154 0 -290 59.5t-237.5 161t-161 237.5t-59.5 290zM307 717q0 -113 41 -211t112.5 -171t169 -115 t210.5 -42t210 42t168.5 115t112.5 171t41 211t-41 211t-112.5 170.5t-169 114.5t-209.5 42q-113 0 -210.5 -42t-169 -114.5t-112.5 -171t-41 -210.5zM721 1628l149 318h236l-148 -318h-237z" />
<glyph unicode="&#xd4;" horiz-adv-x="1679" d="M92 717q0 154 59.5 290t161 237.5t237.5 160.5t290 59t290 -59t237 -160.5t160.5 -238t59.5 -289.5q0 -154 -59.5 -290t-160.5 -237.5t-237.5 -161t-289.5 -59.5q-154 0 -290 59.5t-237.5 161t-161 237.5t-59.5 290zM307 717q0 -113 41 -211t112.5 -171t169 -115 t210.5 -42t210 42t168.5 115t112.5 171t41 211t-41 211t-112.5 170.5t-169 114.5t-209.5 42q-113 0 -210.5 -42t-169 -114.5t-112.5 -171t-41 -210.5zM537 1628l151 318h305l152 -318h-221l-84 174l-82 -174h-221z" />
<glyph unicode="&#xd5;" horiz-adv-x="1679" d="M92 717q0 154 59.5 290t161 237.5t237.5 160.5t290 59t290 -59t237 -160.5t160.5 -238t59.5 -289.5q0 -154 -59.5 -290t-160.5 -237.5t-237.5 -161t-289.5 -59.5q-154 0 -290 59.5t-237.5 161t-161 237.5t-59.5 290zM307 717q0 -113 41 -211t112.5 -171t169 -115 t210.5 -42t210 42t168.5 115t112.5 171t41 211t-41 211t-112.5 170.5t-169 114.5t-209.5 42q-113 0 -210.5 -42t-169 -114.5t-112.5 -171t-41 -210.5zM477 1628q0 51 19.5 97.5t52.5 80t77 54t95 20.5q49 0 82 -14.5t58.5 -31.5t47 -31.5t45.5 -14.5q25 0 41.5 18.5 t16.5 42.5h188q0 -51 -19.5 -97t-52 -80t-76.5 -54.5t-96 -20.5q-49 0 -81.5 14.5t-58 32t-47 32t-46.5 14.5t-41 -18.5t-16 -43.5h-189z" />
<glyph unicode="&#xd6;" horiz-adv-x="1679" d="M92 717q0 154 59.5 290t161 237.5t237.5 160.5t290 59t290 -59t237 -160.5t160.5 -238t59.5 -289.5q0 -154 -59.5 -290t-160.5 -237.5t-237.5 -161t-289.5 -59.5q-154 0 -290 59.5t-237.5 161t-161 237.5t-59.5 290zM307 717q0 -113 41 -211t112.5 -171t169 -115 t210.5 -42t210 42t168.5 115t112.5 171t41 211t-41 211t-112.5 170.5t-169 114.5t-209.5 42q-113 0 -210.5 -42t-169 -114.5t-112.5 -171t-41 -210.5zM485 1735q0 59 39 99t99 40q59 0 99 -40t40 -99t-40 -98.5t-99 -39.5t-98.5 39.5t-39.5 98.5zM918 1735q0 59 38.5 99 t98.5 40q59 0 99 -40t40 -99t-40 -98.5t-99 -39.5t-98 39.5t-39 98.5z" />
<glyph unicode="&#xd7;" d="M170 752l154 151l249 -250l250 250l154 -151l-252 -252l250 -248l-152 -154l-250 250l-249 -250l-152 154l250 248z" />
<glyph unicode="&#xd8;" horiz-adv-x="1679" d="M92 717q0 154 59.5 290t161 237.5t237.5 160.5t290 59q98 0 187 -23.5t169 -66.5l64 90h215l-136 -190q115 -104 181.5 -247.5t66.5 -309.5q0 -154 -59.5 -290t-160.5 -237.5t-237.5 -161t-289.5 -59.5q-98 0 -187.5 23.5t-169.5 66.5l-63 -90h-215l135 191 q-115 104 -181.5 247.5t-66.5 309.5zM307 717q0 -115 42 -213t114 -170l612 868q-111 53 -235 53q-113 0 -210.5 -42t-169 -114.5t-112.5 -170.5t-41 -211zM604 231q106 -53 236 -53q113 0 210 42t168.5 115t112.5 171t41 211q0 115 -42 212t-113 171z" />
<glyph unicode="&#xd9;" horiz-adv-x="1372" d="M143 553v881h215v-887q0 -96 24 -157.5t64 -106.5q45 -49 106.5 -77t133.5 -28t133.5 27.5t106.5 77.5q41 45 64.5 106.5t23.5 157.5v887h215v-881q0 -131 -34 -226.5t-95 -166.5q-76 -88 -182.5 -139.5t-231.5 -51.5t-231.5 51.5t-182.5 139.5q-61 72 -95 167t-34 226z M420 1946h235l150 -318h-238z" />
<glyph unicode="&#xda;" horiz-adv-x="1372" d="M143 553v881h215v-887q0 -96 24 -157.5t64 -106.5q45 -49 106.5 -77t133.5 -28t133.5 27.5t106.5 77.5q41 45 64.5 106.5t23.5 157.5v887h215v-881q0 -131 -34 -226.5t-95 -166.5q-76 -88 -182.5 -139.5t-231.5 -51.5t-231.5 51.5t-182.5 139.5q-61 72 -95 167t-34 226z M567 1628l150 318h235l-147 -318h-238z" />
<glyph unicode="&#xdb;" horiz-adv-x="1372" d="M143 553v881h215v-887q0 -96 24 -157.5t64 -106.5q45 -49 106.5 -77t133.5 -28t133.5 27.5t106.5 77.5q41 45 64.5 106.5t23.5 157.5v887h215v-881q0 -131 -34 -226.5t-95 -166.5q-76 -88 -182.5 -139.5t-231.5 -51.5t-231.5 51.5t-182.5 139.5q-61 72 -95 167t-34 226z M383 1628l152 318h305l151 -318h-221l-84 174l-82 -174h-221z" />
<glyph unicode="&#xdc;" horiz-adv-x="1372" d="M143 553v881h215v-887q0 -96 24 -157.5t64 -106.5q45 -49 106.5 -77t133.5 -28t133.5 27.5t106.5 77.5q41 45 64.5 106.5t23.5 157.5v887h215v-881q0 -131 -34 -226.5t-95 -166.5q-76 -88 -182.5 -139.5t-231.5 -51.5t-231.5 51.5t-182.5 139.5q-61 72 -95 167t-34 226z M332 1735q0 59 39 99t98 40t99 -40t40 -99t-40 -98.5t-99 -39.5t-98 39.5t-39 98.5zM764 1735q0 59 39 99t98 40t99 -40t40 -99t-39.5 -98.5t-99.5 -39.5q-59 0 -98 39.5t-39 98.5z" />
<glyph unicode="&#xdd;" horiz-adv-x="1169" d="M-10 1434h254l340 -557l342 557h254l-488 -781v-653h-215v653zM467 1628l149 318h236l-147 -318h-238z" />
<glyph unicode="&#xde;" d="M154 0v1434h215v-295h252q117 0 195.5 -32t135.5 -85q61 -57 97 -135t36 -170t-35.5 -170t-97.5 -135q-57 -53 -136 -85t-195 -32h-252v-295h-215zM369 504h252q78 0 124.5 21.5t75.5 56.5q49 59 49 135t-49 135q-29 35 -76 56.5t-124 21.5h-252v-426z" />
<glyph unicode="&#xdf;" horiz-adv-x="1087" d="M-10 698v209h164v131q0 121 36.5 204t100.5 136q104 86 248 86q80 0 149.5 -30.5t121.5 -83t82 -122t30 -149.5q0 -90 -37 -154.5t-80 -99.5q92 -51 151.5 -146t59.5 -224q0 -94 -36 -177t-98.5 -144.5t-145.5 -97.5t-177 -36h-41v209q78 0 124 16.5t79 44.5 q37 35 58.5 81t21.5 102q0 94 -58 161q-35 39 -87 61.5t-138 22.5h-65v209h45q66 0 102.5 13.5t58.5 35.5q49 49 50 123q0 74 -48.5 125t-121.5 51q-59 0 -107 -36q-29 -25 -46 -66t-17 -115v-1038h-215v698h-164z" />
<glyph unicode="&#xe0;" horiz-adv-x="1218" d="M82 461q0 100 37 189t101.5 156.5t150.5 106.5t186 39q92 0 166 -29.5t127 -82.5v82h215v-922h-215v82q-53 -53 -127 -83t-166 -30q-100 0 -186 39t-150.5 106.5t-101.5 156.5t-37 190zM297 461q0 -59 21.5 -110.5t58.5 -90.5t87 -60.5t109 -21.5t109.5 21.5t87.5 60.5 t58.5 90.5t21.5 110.5t-21.5 110.5t-58.5 90t-87 60t-110 21.5q-59 0 -109 -21.5t-87 -60t-58.5 -90t-21.5 -110.5zM328 1434h235l150 -318h-238z" />
<glyph unicode="&#xe1;" horiz-adv-x="1218" d="M82 461q0 100 37 189t101.5 156.5t150.5 106.5t186 39q92 0 166 -29.5t127 -82.5v82h215v-922h-215v82q-53 -53 -127 -83t-166 -30q-100 0 -186 39t-150.5 106.5t-101.5 156.5t-37 190zM297 461q0 -59 21.5 -110.5t58.5 -90.5t87 -60.5t109 -21.5t109.5 21.5t87.5 60.5 t58.5 90.5t21.5 110.5t-21.5 110.5t-58.5 90t-87 60t-110 21.5q-59 0 -109 -21.5t-87 -60t-58.5 -90t-21.5 -110.5zM453 1116l149 318h236l-148 -318h-237z" />
<glyph unicode="&#xe2;" horiz-adv-x="1218" d="M82 461q0 100 37 189t101.5 156.5t150.5 106.5t186 39q92 0 166 -29.5t127 -82.5v82h215v-922h-215v82q-53 -53 -127 -83t-166 -30q-100 0 -186 39t-150.5 106.5t-101.5 156.5t-37 190zM297 461q0 -59 21.5 -110.5t58.5 -90.5t87 -60.5t109 -21.5t109.5 21.5t87.5 60.5 t58.5 90.5t21.5 110.5t-21.5 110.5t-58.5 90t-87 60t-110 21.5q-59 0 -109 -21.5t-87 -60t-58.5 -90t-21.5 -110.5zM319 1116l152 318h305l152 -318h-221l-84 174l-82 -174h-222z" />
<glyph unicode="&#xe3;" horiz-adv-x="1218" d="M82 461q0 100 37 189t101.5 156.5t150.5 106.5t186 39q92 0 166 -29.5t127 -82.5v82h215v-922h-215v82q-53 -53 -127 -83t-166 -30q-100 0 -186 39t-150.5 106.5t-101.5 156.5t-37 190zM254 1116q0 51 19.5 97.5t52 80t76.5 54t96 20.5q49 0 81.5 -14.5t58.5 -31.5 t47.5 -31.5t45.5 -14.5q25 0 41 18.5t16 42.5h189q0 -51 -19.5 -97t-52.5 -80t-77 -54.5t-95 -20.5q-49 0 -82 14.5t-58.5 32t-47 32t-45.5 14.5q-25 0 -41.5 -18.5t-16.5 -43.5h-188zM297 461q0 -59 21.5 -110.5t58.5 -90.5t87 -60.5t109 -21.5t109.5 21.5t87.5 60.5 t58.5 90.5t21.5 110.5t-21.5 110.5t-58.5 90t-87 60t-110 21.5q-59 0 -109 -21.5t-87 -60t-58.5 -90t-21.5 -110.5z" />
<glyph unicode="&#xe4;" horiz-adv-x="1218" d="M82 461q0 100 37 189t101.5 156.5t150.5 106.5t186 39q92 0 166 -29.5t127 -82.5v82h215v-922h-215v82q-53 -53 -127 -83t-166 -30q-100 0 -186 39t-150.5 106.5t-101.5 156.5t-37 190zM248 1223q0 59 39 99t98 40t99 -40t40 -99t-40 -98.5t-99 -39.5t-98 39.5t-39 98.5z M297 461q0 -59 21.5 -110.5t58.5 -90.5t87 -60.5t109 -21.5t109.5 21.5t87.5 60.5t58.5 90.5t21.5 110.5t-21.5 110.5t-58.5 90t-87 60t-110 21.5q-59 0 -109 -21.5t-87 -60t-58.5 -90t-21.5 -110.5zM680 1223q0 59 39 99t98 40t99 -40t40 -99t-39.5 -98.5t-99.5 -39.5 q-59 0 -98 39.5t-39 98.5z" />
<glyph unicode="&#xe5;" horiz-adv-x="1218" d="M82 461q0 100 37 189t101.5 156.5t150.5 106.5t186 39q92 0 166 -29.5t127 -82.5v82h215v-922h-215v82q-53 -53 -127 -83t-166 -30q-100 0 -186 39t-150.5 106.5t-101.5 156.5t-37 190zM297 461q0 -59 21.5 -110.5t58.5 -90.5t87 -60.5t109 -21.5t109.5 21.5t87.5 60.5 t58.5 90.5t21.5 110.5t-21.5 110.5t-58.5 90t-87 60t-110 21.5q-59 0 -109 -21.5t-87 -60t-58.5 -90t-21.5 -110.5zM358 1270q0 51 19.5 95t53.5 78t78 53.5t95 19.5t95 -19.5t78 -53.5t53.5 -78t19.5 -95t-19.5 -95.5t-53.5 -78t-78 -53t-95 -19.5t-95 19.5t-78 53 t-53.5 78t-19.5 95.5zM489 1270q0 -49 33 -82t82 -33q47 0 81 33t34 82q0 47 -34 80.5t-81 33.5q-49 0 -82 -33.5t-33 -80.5z" />
<glyph unicode="&#xe6;" horiz-adv-x="1701" d="M82 279q0 92 38 146t89 83q33 18 73 27.5t101 9.5h326q-6 90 -67.5 144t-166.5 54q-74 0 -127 -29.5t-90 -78.5l-174 123q66 88 160 141t227 53q125 0 208 -47t136 -119q53 68 140 117t204 49q100 0 185.5 -39t146.5 -105.5t95 -156.5t34 -190q0 -25 -2 -49.5t-6 -46.5 h-684q20 -86 86.5 -139.5t165.5 -53.5q80 0 141 32t104 89l166 -117q-68 -100 -174 -153.5t-241 -53.5q-119 0 -215.5 48.5t-149.5 132.5q-23 -31 -54.5 -64t-76.5 -58.5t-103.5 -42t-132.5 -16.5q-72 0 -136 20.5t-115.5 59.5t-81 97.5t-29.5 132.5zM297 283q0 -55 46 -83 t116 -28q98 0 167.5 49t80.5 144h-301q-47 0 -68 -13q-16 -10 -28.5 -26.5t-12.5 -42.5zM915 541h488q-16 90 -81 148.5t-163 58.5q-100 0 -163.5 -58.5t-80.5 -148.5z" />
<glyph unicode="&#xe7;" horiz-adv-x="1038" d="M82 461q0 100 39 190t105.5 156.5t155.5 105.5t191 39q125 0 230.5 -57t173.5 -154l-174 -114q-37 53 -97.5 84.5t-132.5 31.5q-59 0 -109 -21.5t-87 -59t-58.5 -90t-21.5 -111.5t21.5 -111.5t58.5 -90.5t87 -59.5t109 -21.5q72 0 132.5 32t97.5 85l174 -115 q-68 -96 -173.5 -153.5t-230.5 -57.5q-102 0 -191 39t-155.5 105.5t-105.5 155.5t-39 192zM305 -410l150 318h235l-147 -318h-238z" />
<glyph unicode="&#xe8;" horiz-adv-x="1085" d="M82 461q0 100 34 190t95 156.5t145 105.5t187 39q100 0 185 -39t146.5 -105.5t95.5 -156.5t34 -190q0 -25 -2.5 -49.5t-6.5 -46.5h-684q20 -86 87 -139.5t165 -53.5q80 0 141.5 32t104.5 89l166 -117q-68 -100 -174.5 -153.5t-241.5 -53.5q-104 0 -192 38t-151.5 104.5 t-98.5 155.5t-35 194zM276 1434h236l150 -318h-238zM299 541h487q-16 90 -80.5 148.5t-162.5 58.5q-100 0 -164 -58.5t-80 -148.5z" />
<glyph unicode="&#xe9;" horiz-adv-x="1085" d="M82 461q0 100 34 190t95 156.5t145 105.5t187 39q100 0 185 -39t146.5 -105.5t95.5 -156.5t34 -190q0 -25 -2.5 -49.5t-6.5 -46.5h-684q20 -86 87 -139.5t165 -53.5q80 0 141.5 32t104.5 89l166 -117q-68 -100 -174.5 -153.5t-241.5 -53.5q-104 0 -192 38t-151.5 104.5 t-98.5 155.5t-35 194zM299 541h487q-16 90 -80.5 148.5t-162.5 58.5q-100 0 -164 -58.5t-80 -148.5zM424 1116l149 318h236l-147 -318h-238z" />
<glyph unicode="&#xea;" horiz-adv-x="1085" d="M82 461q0 100 34 190t95 156.5t145 105.5t187 39q100 0 185 -39t146.5 -105.5t95.5 -156.5t34 -190q0 -25 -2.5 -49.5t-6.5 -46.5h-684q20 -86 87 -139.5t165 -53.5q80 0 141.5 32t104.5 89l166 -117q-68 -100 -174.5 -153.5t-241.5 -53.5q-104 0 -192 38t-151.5 104.5 t-98.5 155.5t-35 194zM240 1116l151 318h305l152 -318h-221l-84 174l-82 -174h-221zM299 541h487q-16 90 -80.5 148.5t-162.5 58.5q-100 0 -164 -58.5t-80 -148.5z" />
<glyph unicode="&#xeb;" horiz-adv-x="1085" d="M82 461q0 100 34 190t95 156.5t145 105.5t187 39q100 0 185 -39t146.5 -105.5t95.5 -156.5t34 -190q0 -25 -2.5 -49.5t-6.5 -46.5h-684q20 -86 87 -139.5t165 -53.5q80 0 141.5 32t104.5 89l166 -117q-68 -100 -174.5 -153.5t-241.5 -53.5q-104 0 -192 38t-151.5 104.5 t-98.5 155.5t-35 194zM188 1223q0 59 39 99t99 40q59 0 99 -40t40 -99t-40 -98.5t-99 -39.5t-98.5 39.5t-39.5 98.5zM299 541h487q-16 90 -80.5 148.5t-162.5 58.5q-100 0 -164 -58.5t-80 -148.5zM621 1223q0 59 38.5 99t98.5 40q59 0 99 -40t40 -99t-40 -98.5t-99 -39.5 t-98 39.5t-39 98.5z" />
<glyph unicode="&#xec;" horiz-adv-x="522" d="M6 1434h236l149 -318h-237zM154 0v922h215v-922h-215z" />
<glyph unicode="&#xed;" horiz-adv-x="522" d="M131 1116l150 318h235l-147 -318h-238zM154 0v922h215v-922h-215z" />
<glyph unicode="&#xee;" horiz-adv-x="522" d="M-41 1116l152 318h305l151 -318h-221l-84 174l-82 -174h-221zM154 0v922h215v-922h-215z" />
<glyph unicode="&#xef;" horiz-adv-x="522" d="M-92 1223q0 59 39 99t98 40t99 -40t40 -99t-40 -98.5t-99 -39.5t-98 39.5t-39 98.5zM154 0v922h215v-922h-215zM340 1223q0 59 39 99t98 40t99 -40t40 -99t-39.5 -98.5t-99.5 -39.5q-59 0 -98 39.5t-39 98.5z" />
<glyph unicode="&#xf0;" d="M82 461q0 115 43 204t108.5 150.5t146.5 93t157 31.5q23 0 45 -2t41 -6l-103 174l-239 -127v197l153 79l-102 179h250l43 -78l223 119v-197l-137 -72l241 -420q35 -61 57.5 -108t35 -86t16.5 -73t4 -68q0 -100 -39 -187.5t-105.5 -153t-156.5 -103.5t-191 -38 q-102 0 -191 39t-155.5 105.5t-105.5 155.5t-39 192zM297 461q0 -57 20.5 -108.5t57.5 -90.5t88 -61.5t110 -22.5t110.5 22.5t88.5 61.5t57.5 90t20.5 109q0 57 -20.5 108.5t-57.5 90t-88 61t-111 22.5q-59 0 -110 -22.5t-88 -61t-57.5 -90t-20.5 -108.5z" />
<glyph unicode="&#xf1;" horiz-adv-x="1103" d="M154 0v922h215v-62q47 43 106.5 67.5t128.5 24.5q88 0 163 -42t122 -109q33 -47 52.5 -112.5t19.5 -172.5v-516h-216v504q0 74 -16 117t-45 69q-51 47 -127 47t-127 -47q-29 -27 -45 -69.5t-16 -116.5v-504h-215zM195 1116q0 51 19 97.5t52 80t77 54t95 20.5 q49 0 82 -14.5t58.5 -31.5t47 -31.5t46.5 -14.5t41 18.5t16 42.5h189q0 -51 -19.5 -97t-52.5 -80t-77 -54.5t-95 -20.5q-49 0 -82 14.5t-58.5 32t-47 32t-46.5 14.5t-41 -18.5t-16 -43.5h-188z" />
<glyph unicode="&#xf2;" d="M82 461q0 100 39 190t105.5 156.5t155.5 105.5t191 39q100 0 190.5 -39t157 -105.5t105.5 -156.5t39 -190q0 -102 -39 -191.5t-105.5 -156t-156.5 -105.5t-191 -39q-102 0 -191 39t-155.5 105.5t-105.5 156t-39 191.5zM297 461q0 -59 21.5 -110.5t58.5 -90.5t87 -60.5 t109 -21.5t109.5 21.5t87.5 60.5t58.5 90t21.5 111q0 59 -21.5 110.5t-58.5 90t-87 60t-110 21.5q-59 0 -109 -21.5t-87 -60t-58.5 -90t-21.5 -110.5zM307 1434h236l149 -318h-237z" />
<glyph unicode="&#xf3;" d="M82 461q0 100 39 190t105.5 156.5t155.5 105.5t191 39q100 0 190.5 -39t157 -105.5t105.5 -156.5t39 -190q0 -102 -39 -191.5t-105.5 -156t-156.5 -105.5t-191 -39q-102 0 -191 39t-155.5 105.5t-105.5 156t-39 191.5zM297 461q0 -59 21.5 -110.5t58.5 -90.5t87 -60.5 t109 -21.5t109.5 21.5t87.5 60.5t58.5 90t21.5 111q0 59 -21.5 110.5t-58.5 90t-87 60t-110 21.5q-59 0 -109 -21.5t-87 -60t-58.5 -90t-21.5 -110.5zM453 1116l149 318h236l-148 -318h-237z" />
<glyph unicode="&#xf4;" d="M82 461q0 100 39 190t105.5 156.5t155.5 105.5t191 39q100 0 190.5 -39t157 -105.5t105.5 -156.5t39 -190q0 -102 -39 -191.5t-105.5 -156t-156.5 -105.5t-191 -39q-102 0 -191 39t-155.5 105.5t-105.5 156t-39 191.5zM270 1116l152 318h305l152 -318h-222l-84 174 l-81 -174h-222zM297 461q0 -59 21.5 -110.5t58.5 -90.5t87 -60.5t109 -21.5t109.5 21.5t87.5 60.5t58.5 90t21.5 111q0 59 -21.5 110.5t-58.5 90t-87 60t-110 21.5q-59 0 -109 -21.5t-87 -60t-58.5 -90t-21.5 -110.5z" />
<glyph unicode="&#xf5;" d="M82 461q0 100 39 190t105.5 156.5t155.5 105.5t191 39q100 0 190.5 -39t157 -105.5t105.5 -156.5t39 -190q0 -102 -39 -191.5t-105.5 -156t-156.5 -105.5t-191 -39q-102 0 -191 39t-155.5 105.5t-105.5 156t-39 191.5zM211 1116q0 51 19.5 97.5t52 80t76.5 54t96 20.5 q49 0 81.5 -14.5t58.5 -31.5t47.5 -31.5t45.5 -14.5q25 0 41 18.5t16 42.5h189q0 -51 -19.5 -97t-52.5 -80t-77 -54.5t-95 -20.5q-49 0 -82 14.5t-58.5 32t-47 32t-45.5 14.5q-25 0 -41.5 -18.5t-16.5 -43.5h-188zM297 461q0 -59 21.5 -110.5t58.5 -90.5t87 -60.5t109 -21.5 t109.5 21.5t87.5 60.5t58.5 90t21.5 111q0 59 -21.5 110.5t-58.5 90t-87 60t-110 21.5q-59 0 -109 -21.5t-87 -60t-58.5 -90t-21.5 -110.5z" />
<glyph unicode="&#xf6;" d="M82 461q0 100 39 190t105.5 156.5t155.5 105.5t191 39q100 0 190.5 -39t157 -105.5t105.5 -156.5t39 -190q0 -102 -39 -191.5t-105.5 -156t-156.5 -105.5t-191 -39q-102 0 -191 39t-155.5 105.5t-105.5 156t-39 191.5zM219 1223q0 59 39 99t98 40t99.5 -40t40.5 -99 t-40 -98.5t-100 -39.5q-59 0 -98 39.5t-39 98.5zM297 461q0 -59 21.5 -110.5t58.5 -90.5t87 -60.5t109 -21.5t109.5 21.5t87.5 60.5t58.5 90t21.5 111q0 59 -21.5 110.5t-58.5 90t-87 60t-110 21.5q-59 0 -109 -21.5t-87 -60t-58.5 -90t-21.5 -110.5zM651 1223q0 59 39 99 t98 40t99.5 -40t40.5 -99t-40 -98.5t-100 -39.5q-59 0 -98 39.5t-39 98.5z" />
<glyph unicode="&#xf7;" d="M92 399v209h963v-209h-963zM416 137q0 66 46 113t111 47q66 0 113 -47t47 -113t-47 -111.5t-113 -45.5t-111.5 45.5t-45.5 111.5zM416 868q0 66 46 113t111 47q66 0 113 -47t47 -113t-47 -111.5t-113 -45.5t-111.5 45.5t-45.5 111.5z" />
<glyph unicode="&#xf8;" d="M82 461q0 100 39 190t105.5 156.5t155.5 105.5t191 39q111 0 205 -47l35 47h213l-104 -147q66 -66 104.5 -155t38.5 -189q0 -102 -39 -191.5t-105.5 -156t-156.5 -105.5t-191 -39q-111 0 -204 47l-35 -47h-213l104 148q-66 66 -104.5 155t-38.5 189zM297 461 q0 -94 51 -168l307 438q-37 12 -82 12q-59 0 -109 -21.5t-87 -60t-58.5 -90t-21.5 -110.5zM489 190q39 -12 84 -12q59 0 109.5 21.5t87.5 60.5t58.5 90t21.5 111q0 47 -14.5 89t-38.5 77z" />
<glyph unicode="&#xf9;" horiz-adv-x="1085" d="M143 410v512h215v-519q0 -74 18.5 -116.5t49.5 -67.5q47 -41 117 -41t116 41q31 25 49.5 68t18.5 116v519h215v-512q0 -123 -38 -206t-101 -138q-53 -45 -118.5 -71t-141.5 -26t-141.5 25.5t-118.5 71.5q-63 55 -101.5 138t-38.5 206zM274 1434h236l149 -318h-237z" />
<glyph unicode="&#xfa;" horiz-adv-x="1085" d="M143 410v512h215v-519q0 -74 18.5 -116.5t49.5 -67.5q47 -41 117 -41t116 41q31 25 49.5 68t18.5 116v519h215v-512q0 -123 -38 -206t-101 -138q-53 -45 -118.5 -71t-141.5 -26t-141.5 25.5t-118.5 71.5q-63 55 -101.5 138t-38.5 206zM424 1116l149 318h236l-147 -318 h-238z" />
<glyph unicode="&#xfb;" horiz-adv-x="1085" d="M143 410v512h215v-519q0 -74 18.5 -116.5t49.5 -67.5q47 -41 117 -41t116 41q31 25 49.5 68t18.5 116v519h215v-512q0 -123 -38 -206t-101 -138q-53 -45 -118.5 -71t-141.5 -26t-141.5 25.5t-118.5 71.5q-63 55 -101.5 138t-38.5 206zM240 1116l151 318h305l152 -318 h-221l-84 174l-82 -174h-221z" />
<glyph unicode="&#xfc;" horiz-adv-x="1085" d="M143 410v512h215v-519q0 -74 18.5 -116.5t49.5 -67.5q47 -41 117 -41t116 41q31 25 49.5 68t18.5 116v519h215v-512q0 -123 -38 -206t-101 -138q-53 -45 -118.5 -71t-141.5 -26t-141.5 25.5t-118.5 71.5q-63 55 -101.5 138t-38.5 206zM188 1223q0 59 39 99t99 40 q59 0 99 -40t40 -99t-40 -98.5t-99 -39.5t-98.5 39.5t-39.5 98.5zM621 1223q0 59 38.5 99t98.5 40q59 0 99 -40t40 -99t-40 -98.5t-99 -39.5t-98 39.5t-39 98.5z" />
<glyph unicode="&#xfd;" horiz-adv-x="1056" d="M61 922h234l246 -643l233 643h232l-514 -1373h-230l168 451zM422 1116l149 318h236l-148 -318h-237z" />
<glyph unicode="&#xfe;" horiz-adv-x="1218" d="M154 -481v1915h215v-596q53 53 125.5 83.5t167.5 30.5q100 0 186 -39t150.5 -106.5t101.5 -156.5t37 -189t-37 -189.5t-101.5 -157t-150.5 -106.5t-186 -39q-94 0 -167 31t-126 84v-565h-215zM369 461q0 -59 21.5 -110.5t58 -90.5t87 -60.5t109.5 -21.5t109.5 21.5 t87.5 60.5t58.5 90t21.5 111q0 59 -21.5 110.5t-58.5 90t-87 60t-110 21.5q-59 0 -109.5 -21.5t-87 -60t-58 -90t-21.5 -110.5z" />
<glyph unicode="&#xff;" horiz-adv-x="1056" d="M61 922h234l246 -643l233 643h232l-514 -1373h-230l168 451zM180 1223q0 59 39 99t98 40t99.5 -40t40.5 -99t-40 -98.5t-100 -39.5q-59 0 -98 39.5t-39 98.5zM612 1223q0 59 39 99t99 40q59 0 99 -40t40 -99t-40 -98.5t-99 -39.5t-98.5 39.5t-39.5 98.5z" />
<glyph unicode="&#x152;" horiz-adv-x="2334" d="M92 717q0 154 59.5 290t161 237.5t237.5 160.5t290 59q156 0 292 -59t240 -164v193h871v-209h-656v-402h635v-209h-635v-405h656v-209h-871v193q-104 -104 -240.5 -164t-291.5 -60q-154 0 -290 59.5t-237.5 161t-161 237.5t-59.5 290zM307 717q0 -113 41 -211t112.5 -171 t169 -115t210.5 -42t210 42t168.5 115t112.5 171t41 211t-41 211t-112.5 170.5t-169 114.5t-209.5 42q-113 0 -210.5 -42t-169 -114.5t-112.5 -171t-41 -210.5z" />
<glyph unicode="&#x153;" horiz-adv-x="1841" d="M82 461q0 100 39 190t105.5 156.5t155.5 105.5t191 39q121 0 212.5 -52t158.5 -130q61 78 148.5 130t205.5 52q100 0 185.5 -39t147 -105.5t95 -156.5t33.5 -190q0 -25 -2 -49.5t-6 -46.5h-684q20 -86 87 -139.5t165 -53.5q80 0 141.5 32t104.5 89l166 -117 q-66 -98 -171.5 -152.5t-238.5 -54.5q-125 0 -218 50.5t-159 130.5q-68 -78 -158 -129.5t-213 -51.5q-102 0 -191 39t-155.5 105.5t-105.5 155.5t-39 192zM297 461q0 -59 21.5 -110.5t58.5 -90.5t87 -60.5t109 -21.5t109.5 21.5t87.5 60.5t58.5 90t21.5 111 q0 59 -21.5 110.5t-58.5 90t-87 60t-110 21.5q-59 0 -109 -21.5t-87 -60t-58.5 -90t-21.5 -110.5zM1055 541h487q-16 90 -81 148.5t-163 58.5q-100 0 -163.5 -58.5t-79.5 -148.5z" />
<glyph unicode="&#x178;" horiz-adv-x="1169" d="M-10 1434h254l340 -557l342 557h254l-488 -781v-653h-215v653zM229 1735q0 59 39 99t99 40q59 0 99 -40t40 -99t-40 -98.5t-99 -39.5t-98.5 39.5t-39.5 98.5zM662 1735q0 59 38.5 99t98.5 40q59 0 99 -40t40 -99t-40 -98.5t-99 -39.5t-98 39.5t-39 98.5z" />
<glyph unicode="&#x2c6;" horiz-adv-x="792" d="M92 1116l152 318h305l151 -318h-221l-84 174l-82 -174h-221z" />
<glyph unicode="&#x2dc;" horiz-adv-x="907" d="M92 1116q0 51 19.5 97.5t52.5 80t77 54t95 20.5q49 0 82 -14.5t58.5 -31.5t47 -31.5t45.5 -14.5q25 0 41.5 18.5t16.5 42.5h188q0 -51 -19.5 -97t-52 -80t-76.5 -54.5t-96 -20.5q-49 0 -81.5 14.5t-58 32t-47.5 32t-46 14.5q-25 0 -41 -18.5t-16 -43.5h-189z" />
<glyph unicode="&#x2000;" horiz-adv-x="1014" />
<glyph unicode="&#x2001;" horiz-adv-x="2028" />
<glyph unicode="&#x2002;" horiz-adv-x="1014" />
<glyph unicode="&#x2003;" horiz-adv-x="2028" />
<glyph unicode="&#x2004;" horiz-adv-x="676" />
<glyph unicode="&#x2005;" horiz-adv-x="507" />
<glyph unicode="&#x2006;" horiz-adv-x="338" />
<glyph unicode="&#x2007;" horiz-adv-x="338" />
<glyph unicode="&#x2008;" horiz-adv-x="253" />
<glyph unicode="&#x2009;" horiz-adv-x="405" />
<glyph unicode="&#x200a;" horiz-adv-x="112" />
<glyph unicode="&#x2010;" horiz-adv-x="901" d="M113 455v209h675v-209h-675z" />
<glyph unicode="&#x2011;" horiz-adv-x="901" d="M113 455v209h675v-209h-675z" />
<glyph unicode="&#x2012;" horiz-adv-x="901" d="M113 455v209h675v-209h-675z" />
<glyph unicode="&#x2013;" horiz-adv-x="880" d="M41 455v209h799v-209h-799z" />
<glyph unicode="&#x2014;" horiz-adv-x="1402" d="M41 455v209h1321v-209h-1321z" />
<glyph unicode="&#x2018;" horiz-adv-x="516" d="M20 922l240 512h236l-238 -512h-238z" />
<glyph unicode="&#x2019;" horiz-adv-x="516" d="M20 922l240 512h236l-238 -512h-238z" />
<glyph unicode="&#x201a;" horiz-adv-x="516" d="M20 -256l240 512h236l-238 -512h-238z" />
<glyph unicode="&#x201c;" horiz-adv-x="956" d="M20 922l240 512h236l-238 -512h-238zM461 922l239 512h236l-238 -512h-237z" />
<glyph unicode="&#x201d;" horiz-adv-x="956" d="M20 922l240 512h236l-238 -512h-238zM461 922l239 512h236l-238 -512h-237z" />
<glyph unicode="&#x201e;" horiz-adv-x="956" d="M20 -256l240 512h236l-238 -512h-238zM461 -256l239 512h236l-238 -512h-237z" />
<glyph unicode="&#x2022;" horiz-adv-x="890" d="M102 608q0 72 27 134.5t74 109.5t109.5 73.5t133.5 26.5q70 0 132.5 -26.5t109.5 -73.5t73.5 -109.5t26.5 -134.5t-26.5 -133t-73.5 -108.5t-109.5 -74t-132.5 -26.5q-72 0 -134 26.5t-109 74t-74 108.5t-27 133z" />
<glyph unicode="&#x2026;" horiz-adv-x="1648" d="M143 127q0 66 46.5 113t111.5 47q66 0 113 -47t47 -113t-47 -112t-113 -46t-112 46t-46 112zM666 127q0 66 46 113t111 47q66 0 113 -47t47 -113t-47 -112t-113 -46t-111.5 46t-45.5 112zM1188 127q0 66 46 113t112 47t112.5 -47t46.5 -113t-47 -112t-112 -46 q-66 0 -112 46t-46 112z" />
<glyph unicode="&#x202f;" horiz-adv-x="405" />
<glyph unicode="&#x2039;" horiz-adv-x="688" d="M123 461l237 307h277l-250 -307l250 -307h-277z" />
<glyph unicode="&#x203a;" horiz-adv-x="688" d="M51 154l250 307l-250 307h277l237 -307l-237 -307h-277z" />
<glyph unicode="&#x205f;" horiz-adv-x="507" />
<glyph unicode="&#x20ac;" d="M45 481v174h184v123h-184v174h184q0 98 16.5 165t49.5 120q61 104 168.5 165.5t236.5 61.5q131 0 240 -64.5t170 -172.5l-182 -105q-33 59 -91.5 96t-134.5 37q-63 0 -115 -25.5t-87 -70.5q-27 -35 -41.5 -82t-14.5 -125h486l-101 -174h-385v-123h316l-103 -174h-213 q0 -78 14.5 -125t41.5 -82q35 -45 87 -70.5t115 -25.5q76 0 134.5 37t91.5 96l182 -104q-61 -109 -170 -173.5t-240 -64.5q-129 0 -236.5 61.5t-168.5 166.5q-33 53 -49.5 119.5t-16.5 164.5h-184z" />
<glyph unicode="&#x2122;" horiz-adv-x="1814" d="M61 1294v140h646v-140h-246v-749h-154v749h-246zM668 545l282 897l260 -547l260 547l283 -897h-160l-151 477l-232 -485l-231 485l-152 -477h-159z" />
<glyph unicode="&#xe000;" horiz-adv-x="921" d="M0 0v922h922v-922h-922z" />
</font>
</defs>
</svg>
